HIERARCHY
ROOT Root
{
  OFFSET 0.0 0.0 0.0
  CHANNELS 6 Xposition Yposition Zposition Zrotation Yrotation Xrotation
  JOINT Hips
  {
    OFFSET 0.0 100.0 0.0
    CHANNELS 6 Xposition Yposition Zposition Zrotation Yrotation Xrotation
    JOINT Spine1
    {
      OFFSET -0.013727 5.003763 -0.053727
      CHANNELS 3 Zrotation Yrotation Xrotation
      JOINT Spine2
      {
        OFFSET -0.0 7.125301 -0.029825
        CHANNELS 3 Zrotation Yrotation Xrotation
        JOINT Chest
        {
          OFFSET -1e-06 7.550063 -0.815971
          CHANNELS 3 Zrotation Yrotation Xrotation
          JOINT Neck1
          {
            OFFSET -0.181677 26.311295 -0.553348
            CHANNELS 3 Zrotation Yrotation Xrotation
            JOINT Neck2
            {
              OFFSET -3e-06 7.709397 2.302585
              CHANNELS 3 Zrotation Yrotation Xrotation
              JOINT Head
              {
                OFFSET -5e-06 6.128916 1.953709
                CHANNELS 3 Zrotation Yrotation Xrotation
                JOINT HeadEnd
                {
                  OFFSET 0.003598 16.065403 -1.835379
                  CHANNELS 3 Zrotation Yrotation Xrotation
                }
                JOINT Jaw
                {
                  OFFSET 0.002637 0.475592 3.094941
                  CHANNELS 3 Zrotation Yrotation Xrotation
                }
                JOINT LeftEye
                {
                  OFFSET 3.206381 5.380205 7.586883
                  CHANNELS 3 Zrotation Yrotation Xrotation
                }
                JOINT RightEye
                {
                  OFFSET -3.22244 5.361869 7.558234
                  CHANNELS 3 Zrotation Yrotation Xrotation
                }
              }
            }
          }
          JOINT LeftShoulder
          {
            OFFSET 1.621652 23.237164 5.113413
            CHANNELS 3 Zrotation Yrotation Xrotation
            JOINT LeftArm
            {
              OFFSET 14.919846 2e-06 -5.502326
              CHANNELS 3 Zrotation Yrotation Xrotation
              JOINT LeftForeArm
              {
                OFFSET 28.739307 0.0 -0.002588
                CHANNELS 3 Zrotation Yrotation Xrotation
                JOINT LeftHand
                {
                  OFFSET 27.093981 -1e-06 0.002609
                  CHANNELS 3 Zrotation Yrotation Xrotation
                  JOINT LeftHandThumb1
                  {
                    OFFSET 2.276482 -1.392045 3.191413
                    CHANNELS 3 Zrotation Yrotation Xrotation
                    JOINT LeftHandThumb2
                    {
                      OFFSET 4.012836 -1.828127 1.641654
                      CHANNELS 3 Zrotation Yrotation Xrotation
                      JOINT LeftHandThumb3
                      {
                        OFFSET 2.798515 0.0 -3e-06
                        CHANNELS 3 Zrotation Yrotation Xrotation
                        JOINT LeftHandThumbEnd
                        {
                          OFFSET 3.180793 -4e-06 4e-06
                          CHANNELS 3 Zrotation Yrotation Xrotation
                        }
                      }
                    }
                  }
                  JOINT LeftHandIndex1
                  {
                    OFFSET 3.247555 -0.531998 2.296169
                    CHANNELS 3 Zrotation Yrotation Xrotation
                    JOINT LeftHandIndex2
                    {
                      OFFSET 6.364578 0.01206 0.1786
                      CHANNELS 3 Zrotation Yrotation Xrotation
                      JOINT LeftHandIndex3
                      {
                        OFFSET 3.662364 0.0 0.0
                        CHANNELS 3 Zrotation Yrotation Xrotation
                        JOINT LeftHandIndex4
                        {
                          OFFSET 2.329242 4e-06 4e-06
                          CHANNELS 3 Zrotation Yrotation Xrotation
                          JOINT LeftHandIndexEnd
                          {
                            OFFSET 2.759615 -0.180537 -0.113024
                            CHANNELS 3 Zrotation Yrotation Xrotation
                          }
                        }
                      }
                    }
                  }
                  JOINT LeftHandMiddle1
                  {
                    OFFSET 3.163495 0.240981 1.000332
                    CHANNELS 3 Zrotation Yrotation Xrotation
                    JOINT LeftHandMiddle2
                    {
                      OFFSET 6.19078 -0.259278 -1.002548
                      CHANNELS 3 Zrotation Yrotation Xrotation
                      JOINT LeftHandMiddle3
                      {
                        OFFSET 4.35652 -4e-06 -1e-06
                        CHANNELS 3 Zrotation Yrotation Xrotation
                        JOINT LeftHandMiddle4
                        {
                          OFFSET 2.996877 -8e-06 0.0
                          CHANNELS 3 Zrotation Yrotation Xrotation
                          JOINT LeftHandMiddleEnd
                          {
                            OFFSET 2.304287 -0.294569 -0.031741
                            CHANNELS 3 Zrotation Yrotation Xrotation
                          }
                        }
                      }
                    }
                  }
                  JOINT LeftHandRing1
                  {
                    OFFSET 2.882643 -0.053652 -0.322543
                    CHANNELS 3 Zrotation Yrotation Xrotation
                    JOINT LeftHandRing2
                    {
                      OFFSET 5.854541 -0.486202 -1.373841
                      CHANNELS 3 Zrotation Yrotation Xrotation
                      JOINT LeftHandRing3
                      {
                        OFFSET 4.350578 0.0 3e-06
                        CHANNELS 3 Zrotation Yrotation Xrotation
                        JOINT LeftHandRing4
                        {
                          OFFSET 2.651321 7e-06 2e-06
                          CHANNELS 3 Zrotation Yrotation Xrotation
                          JOINT LeftHandRingEnd
                          {
                            OFFSET 1.936105 0.077687 -7.1e-05
                            CHANNELS 3 Zrotation Yrotation Xrotation
                          }
                        }
                      }
                    }
                  }
                  JOINT LeftHandPinky1
                  {
                    OFFSET 2.8655 -0.310005 -1.600378
                    CHANNELS 3 Zrotation Yrotation Xrotation
                    JOINT LeftHandPinky2
                    {
                      OFFSET 5.087849 -1.331141 -1.77123
                      CHANNELS 3 Zrotation Yrotation Xrotation
                      JOINT LeftHandPinky3
                      {
                        OFFSET 3.070974 4e-06 0.0
                        CHANNELS 3 Zrotation Yrotation Xrotation
                        JOINT LeftHandPinky4
                        {
                          OFFSET 1.549672 0.0 1e-06
                          CHANNELS 3 Zrotation Yrotation Xrotation
                          JOINT LeftHandPinkyEnd
                          {
                            OFFSET 1.944893 -0.157802 0.057219
                            CHANNELS 3 Zrotation Yrotation Xrotation
                          }
                        }
                      }
                    }
                  }
                }
              }
            }
          }
          JOINT RightShoulder
          {
            OFFSET -1.380118 23.180309 5.214158
            CHANNELS 3 Zrotation Yrotation Xrotation
            JOINT RightArm
            {
              OFFSET -15.037196 1.2e-05 -5.545604
              CHANNELS 3 Zrotation Yrotation Xrotation
              JOINT RightForeArm
              {
                OFFSET -28.736639 2e-06 -0.002597
                CHANNELS 3 Zrotation Yrotation Xrotation
                JOINT RightHand
                {
                  OFFSET -27.133619 -0.0 0.002613
                  CHANNELS 3 Zrotation Yrotation Xrotation
                  JOINT RightHandThumb1
                  {
                    OFFSET -2.274032 -1.383988 3.163127
                    CHANNELS 3 Zrotation Yrotation Xrotation
                    JOINT RightHandThumb2
                    {
                      OFFSET -4.011429 -1.827466 1.640914
                      CHANNELS 3 Zrotation Yrotation Xrotation
                      JOINT RightHandThumb3
                      {
                        OFFSET -2.794935 -4e-06 -3e-06
                        CHANNELS 3 Zrotation Yrotation Xrotation
                        JOINT RightHandThumbEnd
                        {
                          OFFSET -3.183852 4e-06 1e-06
                          CHANNELS 3 Zrotation Yrotation Xrotation
                        }
                      }
                    }
                  }
                  JOINT RightHandIndex1
                  {
                    OFFSET -3.253266 -0.520057 2.282866
                    CHANNELS 3 Zrotation Yrotation Xrotation
                    JOINT RightHandIndex2
                    {
                      OFFSET -6.341917 0.012471 0.178266
                      CHANNELS 3 Zrotation Yrotation Xrotation
                      JOINT RightHandIndex3
                      {
                        OFFSET -3.654871 -8e-06 -0.0
                        CHANNELS 3 Zrotation Yrotation Xrotation
                        JOINT RightHandIndex4
                        {
                          OFFSET -2.327586 0.0 1e-06
                          CHANNELS 3 Zrotation Yrotation Xrotation
                          JOINT RightHandIndexEnd
                          {
                            OFFSET -2.76179 -0.180656 -0.113078
                            CHANNELS 3 Zrotation Yrotation Xrotation
                          }
                        }
                      }
                    }
                  }
                  JOINT RightHandMiddle1
                  {
                    OFFSET -3.168106 0.246593 1.00103
                    CHANNELS 3 Zrotation Yrotation Xrotation
                    JOINT RightHandMiddle2
                    {
                      OFFSET -6.180828 -0.258836 -1.000895
                      CHANNELS 3 Zrotation Yrotation Xrotation
                      JOINT RightHandMiddle3
                      {
                        OFFSET -4.348901 0.0 -0.0
                        CHANNELS 3 Zrotation Yrotation Xrotation
                        JOINT RightHandMiddle4
                        {
                          OFFSET -3.00024 -4e-06 -2e-06
                          CHANNELS 3 Zrotation Yrotation Xrotation
                          JOINT RightHandMiddleEnd
                          {
                            OFFSET -2.30252 -0.29437 -0.031706
                            CHANNELS 3 Zrotation Yrotation Xrotation
                          }
                        }
                      }
                    }
                  }
                  JOINT RightHandRing1
                  {
                    OFFSET -2.88569 -0.067952 -0.308858
                    CHANNELS 3 Zrotation Yrotation Xrotation
                    JOINT RightHandRing2
                    {
                      OFFSET -5.854198 -0.48613 -1.373731
                      CHANNELS 3 Zrotation Yrotation Xrotation
                      JOINT RightHandRing3
                      {
                        OFFSET -4.33881 -4e-06 -0.0
                        CHANNELS 3 Zrotation Yrotation Xrotation
                        JOINT RightHandRing4
                        {
                          OFFSET -2.654903 -4e-06 4e-06
                          CHANNELS 3 Zrotation Yrotation Xrotation
                          JOINT RightHandRingEnd
                          {
                            OFFSET -1.933568 0.077527 -5.2e-05
                            CHANNELS 3 Zrotation Yrotation Xrotation
                          }
                        }
                      }
                    }
                  }
                  JOINT RightHandPinky1
                  {
                    OFFSET -2.866425 -0.342796 -1.584145
                    CHANNELS 3 Zrotation Yrotation Xrotation
                    JOINT RightHandPinky2
                    {
                      OFFSET -5.091371 -1.332055 -1.772385
                      CHANNELS 3 Zrotation Yrotation Xrotation
                      JOINT RightHandPinky3
                      {
                        OFFSET -3.062664 -4e-06 1e-06
                        CHANNELS 3 Zrotation Yrotation Xrotation
                        JOINT RightHandPinky4
                        {
                          OFFSET -1.546529 4e-06 -2e-06
                          CHANNELS 3 Zrotation Yrotation Xrotation
                          JOINT RightHandPinkyEnd
                          {
                            OFFSET -1.945119 -0.157718 0.057211
                            CHANNELS 3 Zrotation Yrotation Xrotation
                          }
                        }
                      }
                    }
                  }
                }
              }
            }
          }
        }
      }
    }
    JOINT LeftLeg
    {
      OFFSET 10.043214 -8.434526 2.595655
      CHANNELS 3 Zrotation Yrotation Xrotation
      JOINT LeftShin
      {
        OFFSET -1e-06 -43.221752 -0.802913
        CHANNELS 3 Zrotation Yrotation Xrotation
        JOINT LeftFoot
        {
          OFFSET 1e-06 -42.155094 -3.481523
          CHANNELS 3 Zrotation Yrotation Xrotation
          JOINT LeftToeBase
          {
            OFFSET 0.0 -5.059472 13.231529
            CHANNELS 3 Zrotation Yrotation Xrotation
            JOINT LeftToeEnd
            {
              OFFSET -0.009607 -1.647619 6.513017
              CHANNELS 3 Zrotation Yrotation Xrotation
            }
          }
        }
      }
    }
    JOINT RightLeg
    {
      OFFSET -10.047278 -8.29526 2.620317
      CHANNELS 3 Zrotation Yrotation Xrotation
      JOINT RightShin
      {
        OFFSET 1e-06 -43.362206 -0.805556
        CHANNELS 3 Zrotation Yrotation Xrotation
        JOINT RightFoot
        {
          OFFSET 2e-06 -42.117393 -3.478398
          CHANNELS 3 Zrotation Yrotation Xrotation
          JOINT RightToeBase
          {
            OFFSET -0.0 -5.079609 13.284196
            CHANNELS 3 Zrotation Yrotation Xrotation
            JOINT RightToeEnd
            {
              OFFSET 0.009532 -1.634378 6.460591
              CHANNELS 3 Zrotation Yrotation Xrotation
            }
          }
        }
      }
    }
  }
}
MOTION
Frames: 4
Frame Time: 0.03333333333333333
0.0 0.0 0.0 0.0 -0.0 0.0 -17.054329 90.629021 -30.314701 4.420645 -10.065773 3.91539 0.514616 -0.317033 8.795259 0.143428 -1.00112 -1.226105 4.564742 -2.463376 11.234849 -10.422811 4.342886 -11.272859 0.159626 2.21925 -3.322489 -4.059577 4.192416 -25.637735 7.7e-05 -2.3e-05 7e-06 0.00506 -0.049649 0.095524 0.525478 -3.877387 -10.563806 -0.520291 3.779887 -10.473813 2.626741 -7.961766 12.118553 -63.39986 13.317793 38.627129 0.499093 -56.458843 -0.20689 -7.672767 8.758881 -17.180771 -5.882111 9.861295 0.702591 -10.93688 -0.360575 7.15621 0.0 8.774833 -1e-06 -15.871182 17.783989 6.854959 -1.844035 2.498508 -2.507279 -10.163606 4.678947 4.62111 -20.97604 -5e-06 1e-06 -21.226301 2.451694 -3.594005 1e-06 -7e-06 -1e-06 -1.362683 2.2408 -0.746325 -21.33493 0.584908 3.008324 -13.821225 -4e-06 1e-06 -23.88719 -0.249081 -0.839485 -60.293037 2.890632 -0.183064 -0.294025 1.679688 0.833258 -14.218219 0.093213 1.300581 -34.212078 -0.287568 0.96717 -20.03323 0.964535 1.212844 0.0 1e-06 1e-06 -3.440392 0.788235 0.501655 -15.928201 -3.167313 2.999708 -6.338832 -2e-06 -2e-06 -18.123459 3.648184 -4.905677 -6e-06 -0.0 -1e-06 -0.408067 19.693069 9.381671 59.01886 7.753817 -7.90755 -1.558106 47.532963 -0.443298 0.97002 -6.217812 -19.998857 2.243544 -5.255042 -3.18016 14.282902 -0.826597 6.952507 -1e-06 -12.690618 1e-06 16.774355 -18.474249 2.576913 1.665668 -1.955923 -2.878301 4.727802 -4.170593 4.993927 11.020535 2e-06 -2e-06 12.10906 -3.73572 -2.866787 -0.0 0.0 0.0 1.291987 -1.928551 -1.49809 14.800139 0.567467 3.86561 14.242584 -1.341738 -6.660664 19.631983 0.143924 -0.648247 49.433792 -0.633051 -6.542347 0.353029 -1.511152 -0.03194 20.222805 3.68431 2.316631 18.787287 2e-06 -2e-06 10.751637 -0.47987 1.397906 -1e-06 1e-06 -0.0 3.273809 0.305947 -0.580111 21.486832 11.830384 2.266133 8.162935 -0.0 -2e-06 18.399099 -3.798988 -4.940583 4e-06 0.0 -2e-06 -5.991529 27.339964 -35.623089 0.172896 0.313217 88.903343 -20.567678 -2.057752 22.804951 2.047423 -1.791027 -2.728368 1e-06 0.0 2e-06 1.804428 -8.113488 -33.139454 -0.31832 -0.372542 54.833878 -2.129663 -2.253345 -27.27017 -1.368779 0.844927 -0.689287 0.0 0.0 -1e-06 
0.0 0.0 0.0 0.0 -0.0 0.0 -17.127457 92.805901 -30.074326 4.672609 -9.281231 3.498916 0.486272 -0.209582 8.121204 0.030796 -0.891576 -1.540593 4.310302 -2.567545 10.699727 -9.860177 4.443107 -10.335247 0.052695 2.142238 -3.311118 -3.871945 3.840884 -24.4762 7.7e-05 -2.3e-05 5e-06 0.001929 -0.057555 0.08844 0.514245 -3.887985 -10.559258 -0.515213 3.775081 -10.466316 2.083034 -8.077143 11.899065 -63.497765 12.735261 36.170959 -0.451333 -54.950775 0.117614 -6.888189 8.921068 -16.727905 -5.882106 9.861284 0.70259 -10.936868 -0.360574 7.156204 -0.0 8.774824 0.0 -16.043812 17.650457 6.640508 -1.844033 2.498504 -2.507278 -10.163599 4.678945 4.621108 -20.976021 -3e-06 -0.0 -21.226286 2.451695 -3.594002 1e-06 -5e-06 -1e-06 -1.362681 2.240797 -0.746324 -21.334913 0.584912 3.008321 -13.821213 -2e-06 -1e-06 -23.887167 -0.249081 -0.839485 -60.184704 2.8722 -0.235284 -0.294025 1.679688 0.833256 -14.218205 0.093216 1.300582 -34.212044 -0.287563 0.967167 -20.033211 0.964536 1.212842 -0.0 1e-06 0.0 -3.440387 0.788233 0.501655 -15.928183 -3.167309 2.999708 -6.338826 -1e-06 1e-06 -18.123444 3.648183 -4.90567 -5e-06 1e-06 -1e-06 0.463956 19.12973 9.210322 60.096786 8.130239 -6.649158 -0.872944 45.790981 -0.119744 1.0388 -6.572632 -17.905516 2.243541 -5.255035 -3.180156 14.282887 -0.826596 6.952504 -1e-06 -12.6906 1e-06 16.853481 -18.481979 2.49046 1.665665 -1.95592 -2.878298 4.727799 -4.170586 4.993924 11.020522 3e-06 1e-06 12.109049 -3.735717 -2.866781 0.0 0.0 -0.0 1.291985 -1.928548 -1.498088 14.800125 0.567466 3.865609 14.242568 -1.341738 -6.660653 19.631962 0.143922 -0.648243 49.547096 -0.633383 -6.58961 0.353029 -1.51115 -0.03194 20.222786 3.684306 2.316633 18.78727 1e-06 3e-06 10.751626 -0.47987 1.397907 -1e-06 0.0 -0.0 3.273805 0.305947 -0.58011 21.486803 11.830367 2.266135 8.162926 -0.0 0.0 18.399076 -3.798986 -4.940571 4e-06 0.0 -2e-06 -4.977626 25.625822 -34.415443 0.141507 0.287169 86.566475 -18.284349 -1.225208 15.87555 2.030842 -1.858462 -3.731238 1e-06 0.0 2e-06 1.330046 -8.842318 -29.452383 -0.234956 -0.353342 48.651543 -1.583324 -2.169983 -24.397329 -1.359412 0.826945 -0.640455 0.0 0.0 -1e-06 
0.0 0.0 0.0 0.0 -0.0 0.0 -17.163069 94.822212 -29.79027 4.987062 -8.348318 3.169688 0.409759 -0.169476 7.429694 -0.074496 -0.766497 -1.858258 4.025005 -2.647593 10.115299 -9.315684 4.530186 -9.529886 -0.052428 2.056923 -3.325391 -3.624234 3.435961 -23.385729 7.7e-05 -2.2e-05 6e-06 0.000963 -0.062484 0.082858 0.517146 -3.891318 -10.56814 -0.519931 3.768003 -10.470978 1.621222 -8.066341 11.753545 -63.60796 12.175345 33.787819 -1.191732 -53.956657 0.408584 -6.339662 9.050026 -16.366528 -5.88211 9.861292 0.70259 -10.936877 -0.360575 7.156209 1e-06 8.774829 -1e-06 -16.194069 17.646145 6.40591 -1.844033 2.498506 -2.507277 -10.163606 4.678946 4.62111 -20.976038 -4e-06 1e-06 -21.226299 2.451698 -3.594002 1e-06 -5e-06 -1e-06 -1.362682 2.2408 -0.746323 -21.334929 0.584909 3.008325 -13.821221 -3e-06 1e-06 -23.887184 -0.24908 -0.839485 -60.058147 2.825167 -0.341964 -0.294025 1.679688 0.833257 -14.218217 0.093215 1.300582 -34.212067 -0.287567 0.967171 -20.033226 0.964536 1.212844 -1e-06 1e-06 0.0 -3.44039 0.788234 0.501657 -15.928194 -3.167312 2.999709 -6.338831 -2e-06 -1e-06 -18.123457 3.648184 -4.905674 -6e-06 -0.0 -0.0 1.291406 18.447386 9.050516 61.122795 8.063361 -5.442448 -0.382957 44.491348 0.050106 0.96467 -6.947351 -15.692451 2.243543 -5.255038 -3.180159 14.282896 -0.826595 6.952507 -3e-06 -12.690609 1e-06 16.952839 -18.439651 2.379288 1.665667 -1.955923 -2.8783 4.7278 -4.170592 4.993927 11.020529 3e-06 -1e-06 12.109056 -3.735717 -2.866785 1e-06 0.0 -0.0 1.291986 -1.92855 -1.49809 14.800132 0.567468 3.86561 14.242578 -1.341736 -6.66066 19.631975 0.143926 -0.648246 49.650383 -0.66694 -6.616513 0.353029 -1.511152 -0.03194 20.222799 3.684311 2.316631 18.787277 5e-06 -1e-06 10.751633 -0.479869 1.397906 -1e-06 0.0 1e-06 3.273808 0.305946 -0.580111 21.486824 11.830382 2.266133 8.16293 0.0 -0.0 18.399092 -3.798986 -4.940576 3e-06 0.0 -2e-06 -4.243845 24.05691 -32.804962 0.076538 0.22749 82.771835 -16.164759 -0.340398 10.642964 2.042216 -1.914911 -4.776947 0.0 -0.0 1e-06 0.763937 -9.576818 -25.738255 -0.159018 -0.346077 42.299213 -1.06583 -2.204576 -21.451294 -1.356251 0.802237 -0.580192 -0.0 0.0 -1e-06 
0.0 0.0 0.0 0.0 -0.0 0.0 -17.21162 96.577766 -29.436413 5.258937 -7.333881 2.91704 0.35291 -0.150035 6.715614 -0.180635 -0.614157 -2.172816 3.705202 -2.709289 9.534661 -8.77058 4.603763 -8.815224 -0.141658 1.910971 -3.349503 -3.350859 3.039213 -22.342169 7.7e-05 -2.2e-05 6e-06 -0.004824 -0.081454 0.078109 0.528879 -3.901171 -10.564386 -0.543131 3.739246 -10.461147 1.329888 -7.956993 11.617482 -63.733013 11.7569 31.655861 -1.783506 -53.563393 0.755923 -6.069567 9.365425 -16.030334 -5.882111 9.861292 0.702591 -10.936878 -0.360576 7.156209 0.0 8.774831 -1e-06 -16.354948 17.722752 6.149861 -1.844034 2.498506 -2.507279 -10.163607 4.678948 4.621112 -20.97604 -4e-06 3e-06 -21.226301 2.451698 -3.594002 1e-06 -6e-06 -1e-06 -1.362683 2.2408 -0.746324 -21.334929 0.58491 3.008324 -13.821223 -2e-06 2e-06 -23.887188 -0.24908 -0.839483 -59.953407 2.77672 -0.464329 -0.294025 1.679689 0.833257 -14.218219 0.093215 1.30058 -34.212074 -0.287565 0.967171 -20.03323 0.964536 1.212844 -0.0 1e-06 0.0 -3.440391 0.788234 0.501657 -15.9282 -3.167311 2.999709 -6.338831 -1e-06 0.0 -18.123459 3.648186 -4.905673 -8e-06 -0.0 -3e-06 1.980091 17.619869 8.890666 62.252346 7.589771 -4.300883 -0.219282 43.766617 0.058289 0.560336 -7.148057 -13.814252 2.243543 -5.25504 -3.18016 14.282898 -0.826596 6.952508 -2e-06 -12.690612 2e-06 16.996778 -18.370733 2.320018 1.665667 -1.955922 -2.878301 4.727801 -4.170592 4.993927 11.020534 3e-06 -2e-06 12.109058 -3.735718 -2.866786 0.0 -0.0 -0.0 1.291987 -1.928551 -1.49809 14.800136 0.567467 3.86561 14.24258 -1.341737 -6.660662 19.631977 0.143927 -0.648246 49.708241 -0.69624 -6.603199 0.353029 -1.511152 -0.03194 20.222801 3.684312 2.316632 18.787283 3e-06 -2e-06 10.751634 -0.47987 1.397906 -1e-06 0.0 0.0 3.273808 0.305947 -0.580111 21.486824 11.83038 2.266135 8.162933 1e-06 -0.0 18.399092 -3.798988 -4.940577 3e-06 -1e-06 -2e-06 -3.600551 22.653244 -30.75794 -0.005673 0.135603 77.808937 -14.249986 0.863715 6.420673 2.075385 -1.977476 -5.767261 0.0 -1e-06 1e-06 0.266401 -10.311699 -22.041681 -0.091049 -0.32983 35.969707 -0.678663 -2.377316 -18.564373 -1.360756 0.764779 -0.618255 -0.0 0.0 -1e-06 
